<?xml version="1.0" encoding="UTF-8" standalone="no"?>
<svg
   width="712"
   height="712"
   preserveAspectRatio="xMidYMid meet"
   version="1.1"
   viewBox="0 0 712 712"
   id="svg35"
   xmlns:xlink="http://www.w3.org/1999/xlink"
   xmlns="http://www.w3.org/2000/svg"
   xmlns:svg="http://www.w3.org/2000/svg">
  <defs
     id="defs5">
    <path
       id="f2jrM5bTZu"
       d="m 136.83,9.96 c 2.35,2.34 4.7,5.71 4.71,9.1 0.01,5.86 -6.87,13.81 -19.59,26.87 C 68.91,97 42.23,159.54 42.41,234.97 c 0.2,83.45 28.26,150.47 82.8,202.41 11.47,10.25 16.18,18.31 16.2,25.21 0,3.38 -2.33,6.9 -4.67,10.29 -2.2,2.35 -6.89,4.71 -10.27,4.71 C 113.85,477.62 96.19,462.7 73.13,433.67 28.23,378.64 7.93,317.87 6.79,235.05 5.74,152.19 31.72,96 82.57,37.99 c 18.3,-20.73 33.56,-31.5 43.97,-31.52 3.38,-0.01 6.9,1.15 10.29,3.49 z" />
    <path
       id="fePvRWSP7"
       d="m 415.42,249.9 c -19.93,-5.09 61.85,-101.71 -83.5,-217.39 0,0 19.07,60.59 -77.09,195.8 -96.21,135.16 42.78,215.68 42.78,215.68 0,0 -65.23,-34.76 10.6,-158.52 13.57,-22.45 31.33,-42.78 53.38,-88.54 0,0 19.52,27.55 9.33,87.28 -15.24,90.26 66.09,64.43 67.35,65.69 28.41,33.45 -23.53,92.24 -26.69,94.09 -3.15,1.8 148.33,-91.12 40.71,-230.96 -7.37,7.37 -16.95,41.97 -36.87,36.87 z" />
    <path
       id="a1dIEIC07z"
       d="m 575.26,9.9 c -2.35,2.34 -4.7,5.71 -4.71,9.1 -0.01,5.86 6.87,13.81 19.59,26.87 53.04,51.06 79.72,113.61 79.54,189.04 -0.2,83.45 -28.26,150.47 -82.8,202.41 -11.47,10.25 -16.18,18.31 -16.2,25.21 0,3.38 2.33,6.9 4.67,10.29 2.2,2.35 6.89,4.7 10.27,4.71 12.62,0.03 30.28,-14.89 53.34,-43.92 44.9,-55.03 65.2,-115.8 66.34,-198.62 C 706.35,152.13 680.37,95.94 629.52,37.93 611.22,17.2 595.96,6.43 585.55,6.41 582.17,6.4 578.65,7.56 575.26,9.9 Z" />
  </defs>
  <g
     id="layer1"
     style="display:inline">
    <rect
       style="fill:#000000;fill-opacity:0;stroke:none;stroke-width:0.216265;stroke-linecap:round;stroke-linejoin:round;stroke-miterlimit:4.54454;stroke-dashoffset:7.1924;stroke-opacity:1;paint-order:fill markers stroke;stop-color:#000000"
       id="rect1612"
       width="711.08246"
       height="712"
       x="0.91752577"
       y="0" />
    <path
       style="fill:#000000;fill-opacity:0;stroke:#0a0a23;stroke-width:0.198429;stroke-linecap:round;stroke-linejoin:round;stroke-miterlimit:4.54454;stroke-dashoffset:7.1924;stroke-opacity:1;paint-order:fill markers stroke;stop-color:#000000"
       d="m 0.99816766,0 c 0,237.33334 0,474.66666 0,712 23.05670134,0.88248 46.79232034,0.12589 70.11007934,0.37812 213.477663,0 426.955323,0 640.432993,0 0.88247,-23.0567 0.12589,-46.79232 0.37812,-70.11008 0,-214.08934 0,-428.1787 0,-642.26804 -23.0567,-0.88247497 -46.79232,-0.12589598 -70.11008,-0.37812098 -213.47767,0 -426.95533,10e-9 -640.4329913,0 z"
       id="path1972" />
    <path
       style="fill:#000000;fill-opacity:0;stroke:#0a0a23;stroke-width:0.198429;stroke-linecap:round;stroke-linejoin:round;stroke-miterlimit:4.54454;stroke-dashoffset:7.1924;stroke-opacity:1;paint-order:fill markers stroke;stop-color:#000000"
       d="m 0.99816766,0 c 0,237.33334 0,474.66666 0,712 23.05670134,0.88248 46.79232034,0.12589 70.11007934,0.37812 213.477663,0 426.955323,0 640.432993,0 0.88247,-23.0567 0.12589,-46.79232 0.37812,-70.11008 0,-214.08934 0,-428.1787 0,-642.26804 -23.0567,-0.88247497 -46.79232,-0.12589598 -70.11008,-0.37812098 -213.47767,0 -426.95533,10e-9 -640.4329913,0 z"
       id="path6260" />
    <path
       style="fill:#000000;fill-opacity:0;stroke:#0a0a23;stroke-width:0.198429;stroke-linecap:round;stroke-linejoin:round;stroke-miterlimit:4.54454;stroke-dashoffset:7.1924;stroke-opacity:1;paint-order:fill markers stroke;stop-color:#000000"
       d="m 0.99816766,0 c 0,237.33334 0,474.66666 0,712 23.05670134,0.88248 46.79232034,0.12589 70.11007934,0.37812 213.477663,0 426.955323,0 640.432993,0 0.88247,-23.0567 0.12589,-46.79232 0.37812,-70.11008 0,-214.08934 0,-428.1787 0,-642.26804 -23.0567,-0.88247497 -46.79232,-0.12589598 -70.11008,-0.37812098 -213.47767,0 -426.95533,10e-9 -640.4329913,0 z"
       id="path6299" />
    <path
       style="fill:#000000;fill-opacity:0;stroke:none;stroke-width:0.198429;stroke-linecap:round;stroke-linejoin:round;stroke-miterlimit:4.54454;stroke-dashoffset:7.1924;stroke-opacity:1;paint-order:fill markers stroke;stop-color:#000000"
       d="M 0.99816766,0 C 1.1485258,225.79479 0.66210963,451.59096 1.333455,677.38484 c 0.5131599,11.33796 -0.62193046,22.9976 1.2506703,34.15998 45.6519477,0.81213 91.5648277,0.32932 137.3152347,0.56923 181.83522,0.0498 363.67263,0.55445 545.50661,-0.17659 8.55112,-0.52225 17.54803,0.60074 25.879,-1.15963 0.85683,-111.02067 0.46549,-222.10852 0.63098,-333.15504 0.008,-125.49734 0.001,-250.99467 0.003,-376.4920111 C 704.90432,-1.1916756 696.69559,0.73248101 689.25543,0.02008253 459.96301,-0.6041345 230.66929,-0.28328298 1.3762887,-0.37812098 Z"
       id="path7788" />
    <rect
       style="fill:#000000;fill-opacity:0;stroke:none;stroke-width:0.216265;stroke-linecap:round;stroke-linejoin:round;stroke-miterlimit:4.54454;stroke-dashoffset:7.1924;stroke-opacity:1;paint-order:fill markers stroke;stop-color:#000000"
       id="rect7849"
       width="134.41753"
       height="205.9039"
       x="1.3762887"
       y="-0.37812099" />
    <rect
       style="fill:#000000;fill-opacity:0;stroke:none;stroke-width:0.216265;stroke-linecap:round;stroke-linejoin:round;stroke-miterlimit:4.54454;stroke-dashoffset:7.1924;stroke-opacity:1;paint-order:fill markers stroke;stop-color:#000000"
       id="rect7851"
       width="710.62372"
       height="712.37811"
       x="0.91752577"
       y="0" />
    <path
       style="fill:#0a0a23;fill-opacity:0;stroke:none;stroke-width:0.198429;stroke-linecap:round;stroke-linejoin:round;stroke-miterlimit:4.54454;stroke-dashoffset:7.1924;stroke-opacity:1;paint-order:fill markers stroke;stop-color:#000000"
       d="M 0.99816766,0 C 1.1485258,225.79479 0.66210963,451.59096 1.333455,677.38484 c 0.5131599,11.33796 -0.62193046,22.9976 1.2506703,34.15998 45.6519477,0.81213 91.5648277,0.32932 137.3152347,0.56923 181.83522,0.0498 363.67263,0.55445 545.50661,-0.17659 8.55112,-0.52225 17.54803,0.60074 25.879,-1.15963 0.85683,-111.02067 0.46549,-222.10852 0.63098,-333.15504 0.008,-125.49734 0.001,-250.99467 0.003,-376.4920111 C 704.90432,-1.1916756 696.69559,0.73248101 689.25543,0.02008253 459.96301,-0.6041345 230.66929,-0.28328298 1.3762887,-0.37812098 Z"
       id="path8119" />
    <path
       style="fill:#0a0a23;fill-opacity:0;stroke:none;stroke-width:0.198429;stroke-linecap:round;stroke-linejoin:round;stroke-miterlimit:4.54454;stroke-dashoffset:7.1924;stroke-opacity:1;paint-order:fill markers stroke;stop-color:#000000"
       d="M 0.99816766,0 C 1.1485258,225.79479 0.66210963,451.59096 1.333455,677.38484 c 0.5131599,11.33796 -0.62193046,22.9976 1.2506703,34.15998 45.6519477,0.81213 91.5648277,0.32932 137.3152347,0.56923 181.83522,0.0498 363.67263,0.55445 545.50661,-0.17659 8.55112,-0.52225 17.54803,0.60074 25.879,-1.15963 0.85683,-111.02067 0.46549,-222.10852 0.63098,-333.15504 0.008,-125.49734 0.001,-250.99467 0.003,-376.4920111 C 704.90432,-1.1916756 696.69559,0.73248101 689.25543,0.02008253 459.96301,-0.6041345 230.66929,-0.28328298 1.3762887,-0.37812098 Z"
       id="path8158" />
    <path
       style="fill:#0a0a23;fill-opacity:0;stroke:none;stroke-width:0.198429;stroke-linecap:round;stroke-linejoin:round;stroke-miterlimit:4.54454;stroke-dashoffset:7.1924;stroke-opacity:1;paint-order:fill markers stroke;stop-color:#000000"
       d="M 0.99816766,0 C 1.1485258,225.79479 0.66210963,451.59096 1.333455,677.38484 c 0.5131599,11.33796 -0.62193046,22.9976 1.2506703,34.15998 45.6519477,0.81213 91.5648277,0.32932 137.3152347,0.56923 181.83522,0.0498 363.67263,0.55445 545.50661,-0.17659 8.55112,-0.52225 17.54803,0.60074 25.879,-1.15963 0.85683,-111.02067 0.46549,-222.10852 0.63098,-333.15504 0.008,-125.49734 0.001,-250.99467 0.003,-376.4920111 C 704.90432,-1.1916756 696.69559,0.73248101 689.25543,0.02008253 459.96301,-0.6041345 230.66929,-0.28328298 1.3762887,-0.37812098 Z"
       id="path8197" />
    <path
       style="fill:#0a0a23;fill-opacity:0;stroke:none;stroke-width:0.198429;stroke-linecap:round;stroke-linejoin:round;stroke-miterlimit:4.54454;stroke-dashoffset:7.1924;stroke-opacity:1;paint-order:fill markers stroke;stop-color:#000000"
       d="M 0.99816766,0 C 1.1485258,225.79479 0.66210963,451.59096 1.333455,677.38484 c 0.5131599,11.33796 -0.62193046,22.9976 1.2506703,34.15998 45.6519477,0.81213 91.5648277,0.32932 137.3152347,0.56923 181.83522,0.0498 363.67263,0.55445 545.50661,-0.17659 8.55112,-0.52225 17.54803,0.60074 25.879,-1.15963 0.85683,-111.02067 0.46549,-222.10852 0.63098,-333.15504 0.008,-125.49734 0.001,-250.99467 0.003,-376.4920111 C 704.90432,-1.1916756 696.69559,0.73248101 689.25543,0.02008253 459.96301,-0.6041345 230.66929,-0.28328298 1.3762887,-0.37812098 Z"
       id="path8236" />
    <rect
       style="fill:#0a0a23;fill-opacity:1;stroke:none;stroke-width:0.216265;stroke-linecap:round;stroke-linejoin:round;stroke-miterlimit:4.54454;stroke-dashoffset:7.1924;stroke-opacity:1;paint-order:fill markers stroke;stop-color:#000000"
       id="rect8297"
       width="711.08246"
       height="712"
       x="0.91752577"
       y="0" />
  </g>
  <g
     id="layer2"
     style="display:inline">
    <g
       id="g33"
       style="fill:#f5f6f7;fill-opacity:1;stroke:#0a0a23;stroke-opacity:1"
       transform="translate(-0.6536857,118.74826)">
      <g
         id="g31"
         style="fill:#f5f6f7;fill-opacity:1;stroke:#0a0a23;stroke-opacity:1">
        <g
           id="g13"
           style="fill:#f5f6f7;fill-opacity:1;stroke:#0a0a23;stroke-opacity:1">
          <use
             fill="#0a0a23"
             fill-opacity="1"
             opacity="1"
             xlink:href="#f2jrM5bTZu"
             id="use7"
             style="fill:#f5f6f7;fill-opacity:1;stroke:#0a0a23;stroke-opacity:1"
             x="0"
             y="0"
             width="100%"
             height="100%" />
          <g
             id="g11"
             style="fill:#f5f6f7;fill-opacity:1;stroke:#0a0a23;stroke-opacity:1">
            <use
               fill-opacity="0"
               stroke="#000"
               stroke-opacity="0"
               stroke-width="1"
               opacity="1"
               xlink:href="#f2jrM5bTZu"
               id="use9"
               style="fill:#f5f6f7;fill-opacity:1;stroke:#0a0a23;stroke-opacity:1"
               x="0"
               y="0"
               width="100%"
               height="100%" />
          </g>
        </g>
        <g
           id="g21"
           style="fill:#f5f6f7;fill-opacity:1;stroke:#0a0a23;stroke-opacity:1">
          <use
             fill="#0a0a23"
             fill-opacity="1"
             opacity="1"
             xlink:href="#fePvRWSP7"
             id="use15"
             style="fill:#f5f6f7;fill-opacity:1;stroke:#0a0a23;stroke-opacity:1"
             x="0"
             y="0"
             width="100%"
             height="100%" />
          <g
             id="g19"
             style="fill:#f5f6f7;fill-opacity:1;stroke:#0a0a23;stroke-opacity:1">
            <use
               fill-opacity="0"
               stroke="#000"
               stroke-opacity="0"
               stroke-width="1"
               opacity="1"
               xlink:href="#fePvRWSP7"
               id="use17"
               style="fill:#f5f6f7;fill-opacity:1;stroke:#0a0a23;stroke-opacity:1"
               x="0"
               y="0"
               width="100%"
               height="100%" />
          </g>
        </g>
        <g
           id="g29"
           style="fill:#f5f6f7;fill-opacity:1;stroke:#0a0a23;stroke-opacity:1">
          <use
             fill="#0a0a23"
             fill-opacity="1"
             opacity="1"
             xlink:href="#a1dIEIC07z"
             id="use23"
             style="fill:#f5f6f7;fill-opacity:1;stroke:#0a0a23;stroke-opacity:1"
             x="0"
             y="0"
             width="100%"
             height="100%" />
          <g
             id="g27"
             style="fill:#f5f6f7;fill-opacity:1;stroke:#0a0a23;stroke-opacity:1">
            <use
               fill-opacity="0"
               stroke="#000"
               stroke-opacity="0"
               stroke-width="1"
               opacity="1"
               xlink:href="#a1dIEIC07z"
               id="use25"
               style="fill:#f5f6f7;fill-opacity:1;stroke:#0a0a23;stroke-opacity:1"
               x="0"
               y="0"
               width="100%"
               height="100%" />
          </g>
        </g>
      </g>
    </g>
  </g>
</svg>
